<svg version="1.0" xmlns="http://www.w3.org/2000/svg" width="197.333" height="617.333" viewBox="0 0 148 463"><path d="M138.5 34.2C107 56.6 88.1 88 68.9 150c-7.7 25.1-11.6 30.8-22.6 33-13.9 2.9-22.4 8.3-26.7 16.9-3.2 6.4-3.9 11.3-2.6 17.9 1.6 7.9 5.3 14.3 12 20.6 13 12.5 28.2 16.4 68.1 17.5 17.8.4 24 .9 25.2 2 2.7 2.2 2.1 8-1.2 13.3-3.6 5.6-4.9 6.4-12.8 7.1-12 1.2-19.4 6.5-24.4 17.3-3.4 7.4-6.6 22.5-7.5 35.4-1 14.8-1.4 15.8-11.5 26.7-17.9 19.2-18.2 20.2-21.4 58.2-2.6 29.8-3.2 37.1-4.1 43.3l-.6 3.8h18.9l.6-5.2c.4-2.9 1.8-19 3.2-35.8 1.6-19.1 3.1-32.1 4.1-34.8 1-2.7 5.1-8 11.4-14.9 14.1-15.2 15.8-18.7 17.6-37.1 1.8-17.7 3.5-26.6 6.4-32.1 2.4-4.8 3.8-5.5 14-7.1 8.5-1.3 12.3-3.3 18-9.7 11.3-12.9 13-29.1 4.2-39.4-5.6-6.5-11.8-8.9-23.2-8.9-16.7-.1-43.6-1.9-51.4-3.5-13.6-2.8-21.6-7.7-25.7-15.6-4.2-8.3-1.4-13.6 8.7-16.3 19.8-5.3 25-9 31.9-22.6 1.6-3 6.5-16.8 11-30.5 12.2-36.9 21.7-57.5 34.2-74.1C128 68.3 145.2 51 147 51c.5 0 .9-5.2.9-11.5s-.1-11.5-.3-11.5c-.2 0-4.3 2.8-9.1 6.2zM131 52.4c0 .2-.8 1-1.7 1.7-1.6 1.3-1.7 1.2-.4-.4 1.3-1.6 2.1-2.1 2.1-1.3zM72.3 170.5c-.3.9-.8 1.4-1 1.1-.3-.3-.2-.9.2-1.5.9-1.6 1.5-1.3.8.4zM67 181c-.6 1.1-1.3 2-1.6 2-.2 0 0-.9.6-2s1.3-2 1.6-2c.2 0 0 .9-.6 2zm-8.5 8c-.3.5-1.2 1-1.8 1-.7 0-.6-.4.3-1 1.9-1.2 2.3-1.2 1.5 0zm-10.8 3.6c-.3.3-1.2.4-1.9.1-.8-.3-.5-.6.6-.6 1.1-.1 1.7.2 1.3.5zM37 195.5c0 .2-1 .9-2.2 1.5-2.2 1.1-2.2 1-.4-.4 2.1-1.7 2.6-1.9 2.6-1.1zm-9.9 10.6c-.5 1.3-1 1.9-1 1.2-.1-1.5 1-4.5 1.5-4 .3.2 0 1.5-.5 2.8zm-.3 12c-.3.8-.7.3-1.1-1-.4-1.7-.3-2.1.5-1.3.5.5.8 1.6.6 2.3zm6 11.5c-.4.3-1.2-.5-1.8-1.8-1.2-2.2-1.2-2.2.6-.6 1 1 1.5 2 1.2 2.4zm8.6 7.3c-.2.3-1.2-.3-2.2-1.3-1.6-1.7-1.6-1.8.5-.5 1.2.7 2 1.5 1.7 1.8zm10.7 4.9c-.7.2-1.8-.1-2.3-.6-.8-.8-.4-.9 1.3-.5 1.3.4 1.8.8 1 1.1zm11.4 2.2c1.3.6 1.5.9.5.9-.8 0-2.2-.4-3-.9-1.8-1.2-.2-1.2 2.5 0zm12.8 1.7c-.7.2-2.1.2-3 0-1-.3-.4-.5 1.2-.5 1.7 0 2.4.2 1.8.5zm12 1c-.7.2-2.1.2-3 0-1-.3-.4-.5 1.2-.5 1.7 0 2.4.2 1.8.5zm12 0c-.7.2-2.1.2-3 0-1-.3-.4-.5 1.2-.5 1.7 0 2.4.2 1.8.5zm11.4-.1c-.3.3-1.2.4-1.9.1-.8-.3-.5-.6.6-.6 1.1-.1 1.7.2 1.3.5zM124 248c1.8 1.2.2 1.2-2.5 0-1.3-.6-1.5-.9-.5-.9.8 0 2.2.4 3 .9zm-2 36.5c0 .2-1 .9-2.2 1.5-2.2 1.1-2.2 1-.4-.4 2.1-1.7 2.6-1.9 2.6-1.1zm-11.7 3.2c-.7.2-2.1.2-3 0-1-.3-.4-.5 1.2-.5 1.7 0 2.4.2 1.8.5zM99 290.4c0 .2-.8 1-1.7 1.7-1.6 1.3-1.7 1.2-.4-.4 1.3-1.6 2.1-2.1 2.1-1.3zm-21 68c0 .2-.8 1-1.7 1.7-1.6 1.3-1.7 1.2-.4-.4 1.3-1.6 2.1-2.1 2.1-1.3zm-8 8c0 .2-.8 1-1.7 1.7-1.6 1.3-1.7 1.2-.4-.4 1.3-1.6 2.1-2.1 2.1-1.3zM61 377c-.6 1.1-1.3 2-1.6 2-.2 0 0-.9.6-2s1.3-2 1.6-2c.2 0 0 .9-.6 2zm-4.8 10.7c-.3 1.6-.7 2.2-1 1.5-.4-1.3.4-4.2 1.1-4.2.2 0 .2 1.2-.1 2.7zm-1.5 11.5c-.3.8-.6.5-.6-.6-.1-1.1.2-1.7.5-1.3.3.3.4 1.2.1 1.9zm-1 12c-.3.8-.6.5-.6-.6-.1-1.1.2-1.7.5-1.3.3.3.4 1.2.1 1.9zm-1 12c-.3.8-.6.5-.6-.6-.1-1.1.2-1.7.5-1.3.3.3.4 1.2.1 1.9zm-1 12c-.3.8-.6.5-.6-.6-.1-1.1.2-1.7.5-1.3.3.3.4 1.2.1 1.9zm-3 26c-.3.7-.5.2-.5-1.2s.2-1.9.5-1.3c.2.7.2 1.9 0 2.5z"/><path d="M91.5 82.6c-.9 1.4-1.5 2.7-1.3 3 .2.2 1.2-1 2.2-2.6 2.1-3.7 1.5-4-.9-.4zM85.4 94.7C78.3 110 72.7 123.8 66.3 142c-7.9 22.5-9.8 27.3-13.5 32.7-3.1 4.7-2.6 5.5 1.5 2.3 3.8-3 6.8-10.1 14.1-33.5 6-19.3 12.2-36 19-50.8 1.4-3.1 2.3-5.7 2.1-5.7-.3 0-2.2 3.5-4.1 7.7zM16.7 196.8c-1.5 1.9-3.2 5.4-3.8 7.6-1.4 5-.6 13.4 1.5 17.3l1.6 2.8-.7-3c-.5-1.7-.8-6.2-.8-10 0-5.6.6-8.2 2.7-12.5 1.5-3 2.6-5.5 2.5-5.6-.1-.1-1.4 1.4-3 3.4zM116 261.6c0 1.5-1.3 5.1-3 8-1.6 2.9-2.6 5.6-2.1 5.9 3.5 2.1 11.6-7.7 10.9-13.2-.2-2.2-.9-2.9-3-3.1-2.5-.3-2.8 0-2.8 2.4zM82.5 287.1c-8.3 7.7-12.9 22.4-14.9 47.3-.7 9.1-3.7 15-13.1 25.5-7.7 8.8-12.5 16.7-14.4 23.6-.6 2.2-2 13.3-3.1 24.5-1.2 11.3-3.1 28.3-4.4 37.7L30.4 463h3.2c3.9 0 3.4 3 7.3-43 3.8-43.4 4.2-44.8 21.7-63 4.5-4.7 8.6-9.5 9.2-10.6.6-1.2 1.6-7.5 2.2-14 2.2-24.5 5.5-36.6 12.7-46.2 3.4-4.5 1.1-4-4.2.9z"/></svg>