<?xml version="1.0" encoding="UTF-8" standalone="no"?>
<!-- Created with Inkscape (http://www.inkscape.org/) -->

<svg width="45.644375mm" height="41.550404mm" viewBox="0 0 45.644375 41.550404" version="1.1" id="svg5" inkscape:version="1.1.1 (3bf5ae0d25, 2021-09-20)" sodipodi:docname="logo.svg" xmlns:inkscape="http://www.inkscape.org/namespaces/inkscape" xmlns:sodipodi="http://sodipodi.sourceforge.net/DTD/sodipodi-0.dtd" xmlns="http://www.w3.org/2000/svg" xmlns:svg="http://www.w3.org/2000/svg">
  <sodipodi:namedview id="namedview7" pagecolor="#ffffff" bordercolor="#666666" borderopacity="1.0" inkscape:pageshadow="2" inkscape:pageopacity="0.0" inkscape:pagecheckerboard="0" inkscape:document-units="mm" showgrid="false" inkscape:zoom="0.46324355" inkscape:cx="833.255" inkscape:cy="558.0218" inkscape:window-width="1366" inkscape:window-height="705" inkscape:window-x="-8" inkscape:window-y="-8" inkscape:window-maximized="1" inkscape:current-layer="layer1"></sodipodi:namedview>
  <defs id="defs2">
    <linearGradient id="linearGradient5717" inkscape:swatch="solid">
      <stop style="stop-color:#ffff00;stop-opacity:1;" offset="0" id="stop5715"></stop>
    </linearGradient>
  </defs>
  <g inkscape:label="Capa 1" inkscape:groupmode="layer" id="layer1" transform="translate(247.04843,2558.0832)">
    <path sodipodi:type="spiral" style="fill:#ffff00;fill-opacity:1;fill-rule:evenodd;stroke:#000000;stroke-width:3.64724;stroke-linejoin:round;stroke-miterlimit:4;stroke-dasharray:none" id="path34" sodipodi:cx="-839.73108" sodipodi:cy="-9597.543" sodipodi:expansion="1" sodipodi:revolution="3.05" sodipodi:radius="94.613762" sodipodi:argument="-21.831457" sodipodi:t0="0.100195" d="m -835.11149,-9605.821 c 8.2156,0.2371 12.07999,9.6329 10.43058,16.6768 -2.77714,11.86 -16.38091,16.9455 -27.22811,13.4235 -15.49972,-5.0326 -21.89767,-23.1888 -16.41643,-37.7794 7.1958,-19.1546 30.01848,-26.8875 48.33067,-19.4093 22.81972,9.3188 31.89706,36.8586 22.40228,58.8819 -11.42106,26.4913 -43.70492,36.9183 -69.43324,25.3952 -30.16714,-13.5111 -41.94687,-50.555 -28.38812,-79.9845 15.59344,-33.8459 57.40766,-46.9805 90.5358,-31.381 37.52659,17.6705 52.01761,64.2621 34.37396,101.087 -19.74409,41.2089 -71.11802,57.0574 -111.63835,37.3669 -43.7315,-21.2509 -61.44167,-75.3418 -41.77765,-119.1728" transform="scale(0.26458333)"></path>
  </g>
</svg>
