<svg width="172.514" height="157.041" viewBox="0 0 45.644 41.55" version="1.1" id="svg5" xmlns="http://www.w3.org/2000/svg"><defs id="defs2"><linearGradient id="linearGradient5717"><stop style="stop-color:#ff0;stop-opacity:1" offset="0" id="stop5715"/></linearGradient></defs><g id="layer1" transform="translate(247.048 2558.083)"><path style="fill:#ff0;fill-opacity:1;fill-rule:evenodd;stroke:#000;stroke-width:3.64724;stroke-linejoin:round;stroke-miterlimit:4;stroke-dasharray:none" id="path34" d="M-835.111-9605.821c8.215.237 12.08 9.633 10.43 16.677-2.777 11.86-16.38 16.945-27.228 13.423-15.5-5.032-21.898-23.189-16.416-37.78 7.195-19.154 30.018-26.887 48.33-19.408 22.82 9.318 31.897 36.858 22.403 58.882-11.422 26.49-43.705 36.918-69.434 25.395-30.167-13.511-41.947-50.555-28.388-79.985 15.594-33.846 57.408-46.98 90.536-31.38 37.527 17.67 52.018 64.261 34.374 101.086-19.744 41.21-71.118 57.058-111.638 37.367-43.732-21.25-61.442-75.342-41.778-119.173" transform="scale(.26458)"/></g></svg>