<?xml version="1.0" standalone="no"?>
<!DOCTYPE svg PUBLIC "-//W3C//DTD SVG 20010904//EN"
 "http://www.w3.org/TR/2001/REC-SVG-20010904/DTD/svg10.dtd">
<svg version="1.0" xmlns="http://www.w3.org/2000/svg"
 width="148.000000pt" height="463.000000pt" viewBox="0 0 148.000000 463.000000"
 preserveAspectRatio="xMidYMid meet">

<g transform="translate(0.000000,463.000000) scale(0.100000,-0.100000)"
fill="#000000" stroke="none">
<path d="M1385 4288 c-315 -224 -504 -538 -696 -1158 -77 -251 -116 -308 -226
-330 -139 -29 -224 -83 -267 -169 -32 -64 -39 -113 -26 -179 16 -79 53 -143
120 -206 130 -125 282 -164 681 -175 178 -4 240 -9 252 -20 27 -22 21 -80 -12
-133 -36 -56 -49 -64 -128 -71 -120 -12 -194 -65 -244 -173 -34 -74 -66 -225
-75 -354 -10 -148 -14 -158 -115 -267 -179 -192 -182 -202 -214 -582 -26 -298
-32 -371 -41 -433 l-6 -38 95 0 94 0 6 52 c4 29 18 190 32 358 16 191 31 321
41 348 10 27 51 80 114 149 141 152 158 187 176 371 18 177 35 266 64 321 24
48 38 55 140 71 85 13 123 33 180 97 113 129 130 291 42 394 -56 65 -118 89
-232 89 -167 1 -436 19 -514 35 -136 28 -216 77 -257 156 -42 83 -14 136 87
163 198 53 250 90 319 226 16 30 65 168 110 305 122 369 217 575 342 741 53
71 225 244 243 244 5 0 9 52 9 115 0 63 -1 115 -3 115 -2 0 -43 -28 -91 -62z
m-75 -182 c0 -2 -8 -10 -17 -17 -16 -13 -17 -12 -4 4 13 16 21 21 21 13z
m-587 -1181 c-3 -9 -8 -14 -10 -11 -3 3 -2 9 2 15 9 16 15 13 8 -4z m-53 -105
c-6 -11 -13 -20 -16 -20 -2 0 0 9 6 20 6 11 13 20 16 20 2 0 0 -9 -6 -20z
m-85 -80 c-3 -5 -12 -10 -18 -10 -7 0 -6 4 3 10 19 12 23 12 15 0z m-108 -36
c-3 -3 -12 -4 -19 -1 -8 3 -5 6 6 6 11 1 17 -2 13 -5z m-107 -29 c0 -2 -10 -9
-22 -15 -22 -11 -22 -10 -4 4 21 17 26 19 26 11z m-99 -106 c-5 -13 -10 -19
-10 -12 -1 15 10 45 15 40 3 -2 0 -15 -5 -28z m-3 -120 c-3 -8 -7 -3 -11 10
-4 17 -3 21 5 13 5 -5 8 -16 6 -23z m60 -115 c-4 -3 -12 5 -18 18 -12 22 -12
22 6 6 10 -10 15 -20 12 -24z m86 -73 c-2 -3 -12 3 -22 13 -16 17 -16 18 5 5
12 -7 20 -15 17 -18z m107 -49 c-7 -2 -18 1 -23 6 -8 8 -4 9 13 5 13 -4 18 -8
10 -11z m114 -22 c13 -6 15 -9 5 -9 -8 0 -22 4 -30 9 -18 12 -2 12 25 0z m128
-17 c-7 -2 -21 -2 -30 0 -10 3 -4 5 12 5 17 0 24 -2 18 -5z m120 -10 c-7 -2
-21 -2 -30 0 -10 3 -4 5 12 5 17 0 24 -2 18 -5z m120 0 c-7 -2 -21 -2 -30 0
-10 3 -4 5 12 5 17 0 24 -2 18 -5z m114 1 c-3 -3 -12 -4 -19 -1 -8 3 -5 6 6 6
11 1 17 -2 13 -5z m123 -14 c18 -12 2 -12 -25 0 -13 6 -15 9 -5 9 8 0 22 -4
30 -9z m-20 -365 c0 -2 -10 -9 -22 -15 -22 -11 -22 -10 -4 4 21 17 26 19 26
11z m-117 -32 c-7 -2 -21 -2 -30 0 -10 3 -4 5 12 5 17 0 24 -2 18 -5z m-113
-27 c0 -2 -8 -10 -17 -17 -16 -13 -17 -12 -4 4 13 16 21 21 21 13z m-210 -680
c0 -2 -8 -10 -17 -17 -16 -13 -17 -12 -4 4 13 16 21 21 21 13z m-80 -80 c0 -2
-8 -10 -17 -17 -16 -13 -17 -12 -4 4 13 16 21 21 21 13z m-90 -106 c-6 -11
-13 -20 -16 -20 -2 0 0 9 6 20 6 11 13 20 16 20 2 0 0 -9 -6 -20z m-48 -107
c-3 -16 -7 -22 -10 -15 -4 13 4 42 11 42 2 0 2 -12 -1 -27z m-15 -115 c-3 -8
-6 -5 -6 6 -1 11 2 17 5 13 3 -3 4 -12 1 -19z m-10 -120 c-3 -8 -6 -5 -6 6 -1
11 2 17 5 13 3 -3 4 -12 1 -19z m-10 -120 c-3 -8 -6 -5 -6 6 -1 11 2 17 5 13
3 -3 4 -12 1 -19z m-10 -120 c-3 -8 -6 -5 -6 6 -1 11 2 17 5 13 3 -3 4 -12 1
-19z m-30 -260 c-3 -7 -5 -2 -5 12 0 14 2 19 5 13 2 -7 2 -19 0 -25z"/>
<path d="M915 3804 c-9 -14 -15 -27 -13 -30 2 -2 12 10 22 26 21 37 15 40 -9
4z"/>
<path d="M854 3683 c-71 -153 -127 -291 -191 -473 -79 -225 -98 -273 -135
-327 -31 -47 -26 -55 15 -23 38 30 68 101 141 335 60 193 122 360 190 508 14
31 23 57 21 57 -3 0 -22 -35 -41 -77z"/>
<path d="M167 2662 c-15 -19 -32 -54 -38 -76 -14 -50 -6 -134 15 -173 l16 -28
-7 30 c-5 17 -8 62 -8 100 0 56 6 82 27 125 15 30 26 55 25 56 -1 1 -14 -14
-30 -34z"/>
<path d="M1160 2014 c0 -15 -13 -51 -30 -80 -16 -29 -26 -56 -21 -59 35 -21
116 77 109 132 -2 22 -9 29 -30 31 -25 3 -28 0 -28 -24z"/>
<path d="M825 1759 c-83 -77 -129 -224 -149 -473 -7 -91 -37 -150 -131 -255
-77 -88 -125 -167 -144 -236 -6 -22 -20 -133 -31 -245 -12 -113 -31 -283 -44
-377 l-22 -173 32 0 c39 0 34 -30 73 430 38 434 42 448 217 630 45 47 86 95
92 106 6 12 16 75 22 140 22 245 55 366 127 462 34 45 11 40 -42 -9z"/>
</g>
</svg>
